<svg width="107" height="22" viewBox="0 0 107 22" fill="none" xmlns="http://www.w3.org/2000/svg">
<path d="M4.31172 16.632L2.65972 13.272L9.60372 6.132H15.5117L4.31172 16.632ZM-0.000281185 21V0.28H4.47972V21H-0.000281185ZM10.0797 21L4.84372 14.224L8.00772 11.76L15.3717 21H10.0797ZM17.2191 21V17.836L27.7471 3.836L29.3991 5.768H17.9471V1.4H32.7311V4.536L22.2591 18.564L20.5791 16.828H33.0391V21H17.2191Z" fill="#3B44F6"/>
<path d="M43.5003 21.28C42.3617 21.28 41.3163 21.14 40.3643 20.86C39.4123 20.5613 38.5537 20.1227 37.7883 19.544C37.023 18.9653 36.3417 18.2653 35.7443 17.444L38.1243 14.756C39.039 16.0253 39.935 16.9027 40.8123 17.388C41.6897 17.8733 42.679 18.116 43.7803 18.116C44.415 18.116 44.9937 18.0227 45.5163 17.836C46.039 17.6307 46.4497 17.36 46.7483 17.024C47.047 16.6693 47.1963 16.268 47.1963 15.82C47.1963 15.5027 47.131 15.2133 47.0003 14.952C46.8883 14.672 46.711 14.4293 46.4683 14.224C46.2257 14 45.927 13.7947 45.5723 13.608C45.2177 13.4213 44.8163 13.2627 44.3683 13.132C43.9203 13.0013 43.4257 12.88 42.8843 12.768C41.8577 12.5627 40.9617 12.292 40.1963 11.956C39.431 11.6013 38.787 11.172 38.2643 10.668C37.7417 10.1453 37.359 9.56667 37.1163 8.932C36.8737 8.27867 36.7523 7.54133 36.7523 6.72C36.7523 5.89867 36.9297 5.14267 37.2843 4.452C37.6577 3.76133 38.1617 3.164 38.7963 2.66C39.431 2.156 40.1683 1.764 41.0083 1.484C41.8483 1.204 42.7537 1.064 43.7243 1.064C44.8257 1.064 45.8057 1.19467 46.6643 1.456C47.5417 1.71733 48.307 2.10933 48.9603 2.632C49.6323 3.136 50.183 3.752 50.6123 4.48L48.2043 6.86C47.831 6.28133 47.411 5.80533 46.9443 5.432C46.4777 5.04 45.9737 4.75067 45.4323 4.564C44.891 4.35867 44.3217 4.256 43.7243 4.256C43.0523 4.256 42.4643 4.34933 41.9603 4.536C41.475 4.72267 41.0923 4.99333 40.8123 5.348C40.5323 5.684 40.3923 6.09467 40.3923 6.58C40.3923 6.95333 40.4763 7.28933 40.6443 7.588C40.8123 7.868 41.0457 8.12 41.3443 8.344C41.6617 8.568 42.063 8.764 42.5483 8.932C43.0337 9.1 43.5843 9.24933 44.2003 9.38C45.227 9.58533 46.151 9.86533 46.9723 10.22C47.7937 10.556 48.4937 10.9667 49.0723 11.452C49.651 11.9187 50.0897 12.46 50.3883 13.076C50.687 13.6733 50.8363 14.3453 50.8363 15.092C50.8363 16.38 50.5283 17.4907 49.9123 18.424C49.315 19.3387 48.4657 20.048 47.3643 20.552C46.263 21.0373 44.975 21.28 43.5003 21.28ZM55.819 21V2.492H59.263V21H55.819ZM52.907 9.436V6.244H62.483V9.436H52.907ZM71.7171 21.28C70.2425 21.28 68.9265 20.9533 67.7691 20.3C66.6118 19.628 65.6971 18.7133 65.0251 17.556C64.3531 16.3987 64.0171 15.0827 64.0171 13.608C64.0171 12.1333 64.3531 10.8173 65.0251 9.66C65.6971 8.50267 66.6118 7.59733 67.7691 6.944C68.9265 6.272 70.2425 5.936 71.7171 5.936C73.1731 5.936 74.4798 6.272 75.6371 6.944C76.7945 7.59733 77.6998 8.50267 78.3531 9.66C79.0251 10.8173 79.3611 12.1333 79.3611 13.608C79.3611 15.0827 79.0251 16.3987 78.3531 17.556C77.6998 18.7133 76.7945 19.628 75.6371 20.3C74.4798 20.9533 73.1731 21.28 71.7171 21.28ZM71.7171 18.228C72.5198 18.228 73.2291 18.0227 73.8451 17.612C74.4798 17.2013 74.9745 16.6507 75.3291 15.96C75.7025 15.2693 75.8798 14.4853 75.8611 13.608C75.8798 12.712 75.7025 11.9187 75.3291 11.228C74.9745 10.5373 74.4798 9.996 73.8451 9.604C73.2291 9.19333 72.5198 8.988 71.7171 8.988C70.9145 8.988 70.1865 9.19333 69.5331 9.604C68.8985 9.996 68.4038 10.5467 68.0491 11.256C67.6945 11.9467 67.5171 12.7307 67.5171 13.608C67.5171 14.4853 67.6945 15.2693 68.0491 15.96C68.4038 16.6507 68.8985 17.2013 69.5331 17.612C70.1865 18.0227 70.9145 18.228 71.7171 18.228ZM82.4418 21V6.244H85.8298L85.8858 10.948L85.4098 9.884C85.6151 9.13733 85.9698 8.46533 86.4738 7.868C86.9778 7.27067 87.5564 6.804 88.2098 6.468C88.8818 6.11333 89.5818 5.936 90.3098 5.936C90.6271 5.936 90.9258 5.964 91.2058 6.02C91.5044 6.076 91.7471 6.14133 91.9338 6.216L91.0098 9.996C90.8044 9.884 90.5524 9.79067 90.2538 9.716C89.9551 9.64133 89.6564 9.604 89.3578 9.604C88.8911 9.604 88.4431 9.69733 88.0138 9.884C87.6031 10.052 87.2391 10.2947 86.9218 10.612C86.6044 10.9293 86.3524 11.3027 86.1658 11.732C85.9978 12.1427 85.9138 12.6093 85.9138 13.132V21H82.4418ZM100.514 21.28C98.9647 21.28 97.5927 20.9533 96.398 20.3C95.222 19.6467 94.298 18.76 93.626 17.64C92.9727 16.5013 92.646 15.204 92.646 13.748C92.646 12.5907 92.8327 11.536 93.206 10.584C93.5794 9.632 94.0927 8.81067 94.746 8.12C95.418 7.41067 96.2114 6.86933 97.126 6.496C98.0594 6.104 99.0767 5.908 100.178 5.908C101.149 5.908 102.054 6.09467 102.894 6.468C103.734 6.84133 104.462 7.35467 105.078 8.008C105.694 8.64267 106.161 9.408 106.478 10.304C106.814 11.1813 106.973 12.1427 106.954 13.188L106.926 14.392H94.97L94.326 12.04H104.042L103.594 12.516V11.9C103.538 11.3213 103.351 10.8173 103.034 10.388C102.717 9.94 102.306 9.59467 101.802 9.352C101.317 9.09067 100.775 8.96 100.178 8.96C99.2634 8.96 98.4887 9.13733 97.854 9.492C97.238 9.84667 96.7714 10.36 96.454 11.032C96.1367 11.6853 95.978 12.5067 95.978 13.496C95.978 14.448 96.174 15.2787 96.566 15.988C96.9767 16.6973 97.546 17.248 98.274 17.64C99.0207 18.0133 99.8887 18.2 100.878 18.2C101.569 18.2 102.203 18.088 102.782 17.864C103.361 17.64 103.986 17.2387 104.658 16.66L106.366 19.04C105.862 19.5067 105.283 19.908 104.63 20.244C103.995 20.5613 103.323 20.8133 102.614 21C101.905 21.1867 101.205 21.28 100.514 21.28Z" fill="#F5F4F9"/>
</svg>
